# xmcd
#
# Track frame offsets: 
#        150
#        6166
#        22005
#        38412
#        60836
#        78991
#        102043
#        114176
#        138236
#
# Disc length: 2207 seconds
#
# Revision: 0
# Processed by: cddbd v1.5.2PL0 Copyright (c) Steve Scherf et al.
# Submitted via: ExactAudioCopy v1.0b3
#
DISCID=59089d09
DTITLE=Niko Riippa - Ägona
DYEAR=2013
DGENRE=Blues
TTITLE0=Dadji
TTITLE1=Hårgalåten
TTITLE2=Kråkdanse
TTITLE3=Trestji
TTITLE4=Åkergåle
TTITLE5=Kling klang
TTITLE6=Rivalse
TTITLE7=Tast trodå
TTITLE8=Nedervetilflickonas utfärd
EXTD=
EXTT0=
EXTT1=
EXTT2=
EXTT3=
EXTT4=
EXTT5=
EXTT6=
EXTT7=
EXTT8=
PLAYORDER=
